<svg width="182" height="32" viewBox="0 0 182 32" fill="none" xmlns="http://www.w3.org/2000/svg">
<path d="M12.857 3.14285H10.2856V5.71428H12.857V3.14285ZM15.4285 3.14285H12.857V5.71428H15.4285V3.14285ZM15.4285 5.71428H12.857V8.28571H15.4285V5.71428ZM15.4285 8.28571H12.857V10.8571H15.4285V8.28571ZM15.4285 10.8571H12.857V13.4286H15.4285V10.8571ZM15.4285 13.4286H12.857V16H15.4285V13.4286ZM15.4285 16H12.857V18.5714H15.4285V16ZM15.4285 18.5714H12.857V21.1429H15.4285V18.5714ZM15.4285 21.1429H12.857V23.7143H15.4285V21.1429ZM15.4285 23.7143H12.857V26.2857H15.4285V23.7143ZM15.4285 26.2857H12.857V28.8571H15.4285V26.2857ZM12.857 26.2857H10.2856V28.8571H12.857V26.2857ZM12.857 23.7143H10.2856V26.2857H12.857V23.7143ZM12.857 21.1429H10.2856V23.7143H12.857V21.1429ZM12.857 18.5714H10.2856V21.1429H12.857V18.5714ZM12.857 16H10.2856V18.5714H12.857V16ZM12.857 13.4286H10.2856V16H12.857V13.4286ZM12.857 10.8571H10.2856V13.4286H12.857V10.8571ZM12.857 8.28571H10.2856V10.8571H12.857V8.28571ZM12.857 5.71428H10.2856V8.28571H12.857V5.71428ZM10.2856 16H7.71418V18.5714H10.2856V16ZM7.71418 16H5.14275V18.5714H7.71418V16ZM7.71418 13.4286H5.14275V16H7.71418V13.4286ZM10.2856 13.4286H7.71418V16H10.2856V13.4286ZM7.71418 10.8571H5.14275V13.4286H7.71418V10.8571ZM5.14275 10.8571H2.57132V13.4286H5.14275V10.8571ZM5.14275 8.28571H2.57132V10.8571H5.14275V8.28571ZM5.14275 5.71428H2.57132V8.28571H5.14275V5.71428ZM5.14275 3.14285H2.57132V5.71428H5.14275V3.14285ZM2.57132 3.14285H-0.000104904V5.71428H2.57132V3.14285ZM2.57132 5.71428H-0.000104904V8.28571H2.57132V5.71428ZM2.57132 8.28571H-0.000104904V10.8571H2.57132V8.28571ZM7.71418 18.5714H5.14275V21.1429H7.71418V18.5714ZM5.14275 18.5714H2.57132V21.1429H5.14275V18.5714ZM5.14275 21.1429H2.57132V23.7143H5.14275V21.1429ZM5.14275 23.7143H2.57132V26.2857H5.14275V23.7143ZM5.14275 26.2857H2.57132V28.8571H5.14275V26.2857ZM2.57132 26.2857H-0.000104904V28.8571H2.57132V26.2857ZM2.57132 23.7143H-0.000104904V26.2857H2.57132V23.7143ZM2.57132 21.1429H-0.000104904V23.7143H2.57132V21.1429ZM2.57132 18.5714H-0.000104904V21.1429H2.57132V18.5714ZM5.14275 16H2.57132V18.5714H5.14275V16Z" fill="#F85835"/>
<path d="M25.1428 7.85714H26.857V9.57143H25.1428V7.85714ZM23.4285 7.85714H25.1428V9.57143H23.4285V7.85714ZM23.4285 9.57143H25.1428V11.2857H23.4285V9.57143ZM23.4285 11.2857H25.1428V13H23.4285V11.2857ZM23.4285 13H25.1428V14.7143H23.4285V13ZM23.4285 14.7143H25.1428V16.4286H23.4285V14.7143ZM23.4285 16.4286H25.1428V18.1429H23.4285V16.4286ZM23.4285 18.1429H25.1428V19.8571H23.4285V18.1429ZM23.4285 19.8571H25.1428V21.5714H23.4285V19.8571ZM23.4285 21.5714H25.1428V23.2857H23.4285V21.5714ZM23.4285 23.2857H25.1428V25H23.4285V23.2857ZM25.1428 23.2857H26.857V25H25.1428V23.2857ZM25.1428 21.5714H26.857V23.2857H25.1428V21.5714ZM25.1428 19.8571H26.857V21.5714H25.1428V19.8571ZM25.1428 18.1429H26.857V19.8571H25.1428V18.1429ZM25.1428 16.4286H26.857V18.1429H25.1428V16.4286ZM25.1428 14.7143H26.857V16.4286H25.1428V14.7143ZM25.1428 13H26.857V14.7143H25.1428V13ZM25.1428 11.2857H26.857V13H25.1428V11.2857ZM25.1428 9.57143H26.857V11.2857H25.1428V9.57143ZM26.857 16.4286H28.5713V18.1429H26.857V16.4286ZM28.5713 16.4286H30.2856V18.1429H28.5713V16.4286ZM28.5713 14.7143H30.2856V16.4286H28.5713V14.7143ZM26.857 14.7143H28.5713V16.4286H26.857V14.7143ZM28.5713 13H30.2856V14.7143H28.5713V13ZM30.2856 13H31.9999V14.7143H30.2856V13ZM30.2856 11.2857H31.9999V13H30.2856V11.2857ZM30.2856 9.57143H31.9999V11.2857H30.2856V9.57143ZM30.2856 7.85714H31.9999V9.57143H30.2856V7.85714ZM31.9999 7.85714H33.7142V9.57143H31.9999V7.85714ZM31.9999 9.57143H33.7142V11.2857H31.9999V9.57143ZM31.9999 11.2857H33.7142V13H31.9999V11.2857ZM28.5713 18.1429H30.2856V19.8571H28.5713V18.1429ZM30.2856 18.1429H31.9999V19.8571H30.2856V18.1429ZM30.2856 19.8571H31.9999V21.5714H30.2856V19.8571ZM30.2856 21.5714H31.9999V23.2857H30.2856V21.5714ZM30.2856 23.2857H31.9999V25H30.2856V23.2857ZM31.9999 23.2857H33.7142V25H31.9999V23.2857ZM31.9999 21.5714H33.7142V23.2857H31.9999V21.5714ZM31.9999 19.8571H33.7142V21.5714H31.9999V19.8571ZM31.9999 18.1429H33.7142V19.8571H31.9999V18.1429ZM30.2856 16.4286H31.9999V18.1429H30.2856V16.4286ZM38.537 11.2857H40.2513V13H38.537V11.2857ZM36.8228 11.2857H38.537V13H36.8228V11.2857ZM36.8228 13H38.537V14.7143H36.8228V13ZM38.537 13H40.2513V14.7143H38.537V13ZM40.2513 11.2857H41.9656V13H40.2513V11.2857ZM41.9656 11.2857H43.6799V13H41.9656V11.2857ZM43.6799 11.2857H45.3942V13H43.6799V11.2857ZM43.6799 13H45.3942V14.7143H43.6799V13ZM41.9656 13H43.6799V14.7143H41.9656V13ZM43.6799 16.4286H45.3942V18.1429H43.6799V16.4286ZM45.3942 13H47.1085V14.7143H45.3942V13ZM45.3942 14.7143H47.1085V16.4286H45.3942V14.7143ZM45.3942 16.4286H47.1085V18.1429H45.3942V16.4286ZM45.3942 18.1429H47.1085V19.8571H45.3942V18.1429ZM45.3942 19.8571H47.1085V21.5714H45.3942V19.8571ZM45.3942 21.5714H47.1085V23.2857H45.3942V21.5714ZM43.6799 21.5714H45.3942V23.2857H43.6799V21.5714ZM43.6799 19.8571H45.3942V21.5714H43.6799V19.8571ZM43.6799 18.1429H45.3942V19.8571H43.6799V18.1429ZM43.6799 14.7143H45.3942V16.4286H43.6799V14.7143ZM41.9656 21.5714H43.6799V23.2857H41.9656V21.5714ZM43.6799 23.2857H45.3942V25H43.6799V23.2857ZM41.9656 23.2857H43.6799V25H41.9656V23.2857ZM40.2513 23.2857H41.9656V25H40.2513V23.2857ZM38.537 23.2857H40.2513V25H38.537V23.2857ZM36.8228 23.2857H38.537V25H36.8228V23.2857ZM36.8228 21.5714H38.537V23.2857H36.8228V21.5714ZM38.537 21.5714H40.2513V23.2857H38.537V21.5714ZM36.8228 19.8571H38.537V21.5714H36.8228V19.8571ZM35.1085 21.5714H36.8228V23.2857H35.1085V21.5714ZM35.1085 19.8571H36.8228V21.5714H35.1085V19.8571ZM35.1085 18.1429H36.8228V19.8571H35.1085V18.1429ZM35.1085 16.4286H36.8228V18.1429H35.1085V16.4286ZM35.1085 14.7143H36.8228V16.4286H35.1085V14.7143ZM35.1085 13H36.8228V14.7143H35.1085V13ZM36.8228 14.7143H38.537V16.4286H36.8228V14.7143ZM36.8228 16.4286H38.537V18.1429H36.8228V16.4286ZM36.8228 18.1429H38.537V19.8571H36.8228V18.1429ZM40.2513 21.5714H41.9656V23.2857H40.2513V21.5714ZM40.2513 13H41.9656V14.7143H40.2513V13ZM60.5072 13V14.7143H58.7929V13H60.5072ZM60.5072 11.2857V13H58.7929V11.2857H60.5072ZM58.7929 11.2857V13H57.0786V11.2857H58.7929ZM58.7929 13V14.7143H57.0786V13H58.7929ZM58.7929 14.7143V16.4286H57.0786V14.7143H58.7929ZM58.7929 16.4286V18.1429H57.0786V16.4286H58.7929ZM58.7929 18.1429V19.8571H57.0786V18.1429H58.7929ZM60.5072 18.1429V19.8571H58.7929V18.1429H60.5072ZM60.5072 16.4286V18.1429H58.7929V16.4286H60.5072ZM60.5072 14.7143V16.4286H58.7929V14.7143H60.5072ZM60.5072 19.8571V21.5714H58.7929V19.8571H60.5072ZM58.7929 19.8571V21.5714H57.0786V19.8571H58.7929ZM58.7929 21.5714V23.2857H57.0786V21.5714H58.7929ZM58.7929 23.2857V25H57.0786V23.2857H58.7929ZM60.5072 23.2857V25H58.7929V23.2857H60.5072ZM60.5072 21.5714V23.2857H58.7929V21.5714H60.5072ZM51.9358 23.2857V25H50.2215V23.2857H51.9358ZM50.2215 21.5714V23.2857H48.5072V21.5714H50.2215ZM50.2215 19.8571V21.5714H48.5072V19.8571H50.2215ZM50.2215 18.1429V19.8571H48.5072V18.1429H50.2215ZM50.2215 16.4286V18.1429H48.5072V16.4286H50.2215ZM50.2215 14.7143V16.4286H48.5072V14.7143H50.2215ZM50.2215 13V14.7143H48.5072V13H50.2215ZM51.9358 16.4286V18.1429H50.2215V16.4286H51.9358ZM51.9358 18.1429V19.8571H50.2215V18.1429H51.9358ZM51.9358 19.8571V21.5714H50.2215V19.8571H51.9358ZM51.9358 21.5714V23.2857H50.2215V21.5714H51.9358ZM51.9358 14.7143V16.4286H50.2215V14.7143H51.9358ZM53.6501 13V14.7143H51.9358V13H53.6501ZM53.6501 11.2857V13H51.9358V11.2857H53.6501ZM51.9358 11.2857V13H50.2215V11.2857H51.9358ZM51.9358 13V14.7143H50.2215V13H51.9358ZM55.3644 11.2857V13H53.6501V11.2857H55.3644ZM60.5072 7.85714V9.57143H58.7929V7.85714H60.5072ZM58.7929 7.85714V9.57143H57.0786V7.85714H58.7929ZM58.7929 9.57143V11.2857H57.0786V9.57143H58.7929ZM60.5072 9.57143V11.2857H58.7929V9.57143H60.5072ZM55.3644 23.2857V25H53.6501V23.2857H55.3644ZM53.6501 23.2857V25H51.9358V23.2857H53.6501ZM53.6501 21.5714V23.2857H51.9358V21.5714H53.6501ZM55.3644 21.5714V23.2857H53.6501V21.5714H55.3644ZM57.0786 21.5714V23.2857H55.3644V21.5714H57.0786ZM57.0786 11.2857V13H55.3644V11.2857H57.0786ZM57.0786 13V14.7143H55.3644V13H57.0786ZM55.3644 13V14.7143H53.6501V13H55.3644ZM65.3345 11.2857H67.0488V13H65.3345V11.2857ZM63.6203 11.2857H65.3345V13H63.6203V11.2857ZM63.6203 13H65.3345V14.7143H63.6203V13ZM65.3345 13H67.0488V14.7143H65.3345V13ZM67.0488 11.2857H68.7631V13H67.0488V11.2857ZM68.7631 11.2857H70.4774V13H68.7631V11.2857ZM70.4774 11.2857H72.1917V13H70.4774V11.2857ZM70.4774 13H72.1917V14.7143H70.4774V13ZM68.7631 13H70.4774V14.7143H68.7631V13ZM72.1917 13H73.906V14.7143H72.1917V13ZM72.1917 14.7143H73.906V16.4286H72.1917V14.7143ZM72.1917 21.5714H73.906V23.2857H72.1917V21.5714ZM70.4774 21.5714H72.1917V23.2857H70.4774V21.5714ZM70.4774 14.7143H72.1917V16.4286H70.4774V14.7143ZM68.7631 21.5714H70.4774V23.2857H68.7631V21.5714ZM70.4774 23.2857H72.1917V25H70.4774V23.2857ZM68.7631 23.2857H70.4774V25H68.7631V23.2857ZM67.0488 23.2857H68.7631V25H67.0488V23.2857ZM65.3345 23.2857H67.0488V25H65.3345V23.2857ZM63.6203 23.2857H65.3345V25H63.6203V23.2857ZM63.6203 21.5714H65.3345V23.2857H63.6203V21.5714ZM65.3345 21.5714H67.0488V23.2857H65.3345V21.5714ZM63.6203 19.8571H65.3345V21.5714H63.6203V19.8571ZM61.906 21.5714H63.6203V23.2857H61.906V21.5714ZM61.906 19.8571H63.6203V21.5714H61.906V19.8571ZM61.906 18.1429H63.6203V19.8571H61.906V18.1429ZM61.906 16.4286H63.6203V18.1429H61.906V16.4286ZM61.906 14.7143H63.6203V16.4286H61.906V14.7143ZM61.906 13H63.6203V14.7143H61.906V13ZM63.6203 14.7143H65.3345V16.4286H63.6203V14.7143ZM63.6203 16.4286H65.3345V18.1429H63.6203V16.4286ZM63.6203 18.1429H65.3345V19.8571H63.6203V18.1429ZM67.0488 21.5714H68.7631V23.2857H67.0488V21.5714ZM67.0488 13H68.7631V14.7143H67.0488V13ZM70.4774 16.4286H72.1917V18.1429H70.4774V16.4286ZM72.1917 16.4286H73.906V18.1429H72.1917V16.4286ZM65.3345 18.1429H67.0488V19.8571H65.3345V18.1429ZM67.0488 18.1429H68.7631V19.8571H67.0488V18.1429ZM68.7631 18.1429H70.4774V19.8571H68.7631V18.1429ZM70.4774 18.1429H72.1917V19.8571H70.4774V18.1429ZM72.1917 18.1429H73.906V19.8571H72.1917V18.1429ZM68.7631 16.4286H70.4774V18.1429H68.7631V16.4286ZM67.0488 16.4286H68.7631V18.1429H67.0488V16.4286ZM65.3345 16.4286H67.0488V18.1429H65.3345V16.4286ZM82.1619 21.5714H83.8761V23.2857H82.1619V21.5714ZM82.1619 23.2857H83.8761V25H82.1619V23.2857ZM80.4476 23.2857H82.1619V25H80.4476V23.2857ZM80.4476 21.5714H82.1619V23.2857H80.4476V21.5714ZM78.7333 23.2857H80.4476V25H78.7333V23.2857ZM78.7333 21.5714H80.4476V23.2857H78.7333V21.5714ZM77.019 21.5714H78.7333V23.2857H77.019V21.5714ZM77.019 19.8571H78.7333V21.5714H77.019V19.8571ZM77.019 18.1429H78.7333V19.8571H77.019V18.1429ZM77.019 16.4286H78.7333V18.1429H77.019V16.4286ZM77.019 14.7143H78.7333V16.4286H77.019V14.7143ZM77.019 13H78.7333V14.7143H77.019V13ZM78.7333 18.1429H80.4476V19.8571H78.7333V18.1429ZM78.7333 19.8571H80.4476V21.5714H78.7333V19.8571ZM78.7333 16.4286H80.4476V18.1429H78.7333V16.4286ZM78.7333 14.7143H80.4476V16.4286H78.7333V14.7143ZM78.7333 7.85714H80.4476V9.57143H78.7333V7.85714ZM78.7333 9.57143H80.4476V11.2857H78.7333V9.57143ZM78.7333 11.2857H80.4476V13H78.7333V11.2857ZM78.7333 13H80.4476V14.7143H78.7333V13ZM77.019 11.2857H78.7333V13H77.019V11.2857ZM75.3047 13H77.019V14.7143H75.3047V13ZM80.4476 13H82.1619V14.7143H80.4476V13ZM82.1619 13H83.8761V14.7143H82.1619V13ZM77.019 9.57143H78.7333V11.2857H77.019V9.57143ZM75.3047 14.7143H77.019V16.4286H75.3047V14.7143ZM80.4476 14.7143H82.1619V16.4286H80.4476V14.7143ZM82.1619 14.7143H83.8761V16.4286H82.1619V14.7143ZM88.6945 11.2857H90.4088V13H88.6945V11.2857ZM86.9803 11.2857H88.6945V13H86.9803V11.2857ZM86.9803 13H88.6945V14.7143H86.9803V13ZM88.6945 13H90.4088V14.7143H88.6945V13ZM90.4088 11.2857H92.1231V13H90.4088V11.2857ZM92.1231 11.2857H93.8374V13H92.1231V11.2857ZM93.8374 11.2857H95.5517V13H93.8374V11.2857ZM93.8374 13H95.5517V14.7143H93.8374V13ZM92.1231 13H93.8374V14.7143H92.1231V13ZM95.5517 13H97.266V14.7143H95.5517V13ZM95.5517 14.7143H97.266V16.4286H95.5517V14.7143ZM95.5517 21.5714H97.266V23.2857H95.5517V21.5714ZM93.8374 21.5714H95.5517V23.2857H93.8374V21.5714ZM93.8374 14.7143H95.5517V16.4286H93.8374V14.7143ZM92.1231 21.5714H93.8374V23.2857H92.1231V21.5714ZM93.8374 23.2857H95.5517V25H93.8374V23.2857ZM92.1231 23.2857H93.8374V25H92.1231V23.2857ZM90.4088 23.2857H92.1231V25H90.4088V23.2857ZM88.6945 23.2857H90.4088V25H88.6945V23.2857ZM86.9803 23.2857H88.6945V25H86.9803V23.2857ZM86.9803 21.5714H88.6945V23.2857H86.9803V21.5714ZM88.6945 21.5714H90.4088V23.2857H88.6945V21.5714ZM86.9803 19.8571H88.6945V21.5714H86.9803V19.8571ZM85.266 21.5714H86.9803V23.2857H85.266V21.5714ZM85.266 19.8571H86.9803V21.5714H85.266V19.8571ZM85.266 18.1429H86.9803V19.8571H85.266V18.1429ZM85.266 16.4286H86.9803V18.1429H85.266V16.4286ZM85.266 14.7143H86.9803V16.4286H85.266V14.7143ZM85.266 13H86.9803V14.7143H85.266V13ZM86.9803 14.7143H88.6945V16.4286H86.9803V14.7143ZM86.9803 16.4286H88.6945V18.1429H86.9803V16.4286ZM86.9803 18.1429H88.6945V19.8571H86.9803V18.1429ZM90.4088 21.5714H92.1231V23.2857H90.4088V21.5714ZM90.4088 13H92.1231V14.7143H90.4088V13ZM93.8374 16.4286H95.5517V18.1429H93.8374V16.4286ZM95.5517 16.4286H97.266V18.1429H95.5517V16.4286ZM88.6945 18.1429H90.4088V19.8571H88.6945V18.1429ZM90.4088 18.1429H92.1231V19.8571H90.4088V18.1429ZM92.1231 18.1429H93.8374V19.8571H92.1231V18.1429ZM93.8374 18.1429H95.5517V19.8571H93.8374V18.1429ZM95.5517 18.1429H97.266V19.8571H95.5517V18.1429ZM92.1231 16.4286H93.8374V18.1429H92.1231V16.4286ZM90.4088 16.4286H92.1231V18.1429H90.4088V16.4286ZM88.6945 16.4286H90.4088V18.1429H88.6945V16.4286ZM102.093 11.2857H103.808V13H102.093V11.2857ZM100.379 11.2857H102.093V13H100.379V11.2857ZM100.379 13H102.093V14.7143H100.379V13ZM102.093 13H103.808V14.7143H102.093V13ZM103.808 11.2857H105.522V13H103.808V11.2857ZM105.522 11.2857H107.236V13H105.522V11.2857ZM107.236 11.2857H108.95V13H107.236V11.2857ZM107.236 13H108.95V14.7143H107.236V13ZM105.522 13H107.236V14.7143H105.522V13ZM108.95 13H110.665V14.7143H108.95V13ZM108.95 14.7143H110.665V16.4286H108.95V14.7143ZM108.95 19.8571H110.665V21.5714H108.95V19.8571ZM108.95 21.5714H110.665V23.2857H108.95V21.5714ZM107.236 21.5714H108.95V23.2857H107.236V21.5714ZM107.236 19.8571H108.95V21.5714H107.236V19.8571ZM107.236 14.7143H108.95V16.4286H107.236V14.7143ZM105.522 21.5714H107.236V23.2857H105.522V21.5714ZM107.236 23.2857H108.95V25H107.236V23.2857ZM105.522 23.2857H107.236V25H105.522V23.2857ZM103.808 23.2857H105.522V25H103.808V23.2857ZM102.093 23.2857H103.808V25H102.093V23.2857ZM100.379 23.2857H102.093V25H100.379V23.2857ZM100.379 21.5714H102.093V23.2857H100.379V21.5714ZM102.093 21.5714H103.808V23.2857H102.093V21.5714ZM100.379 19.8571H102.093V21.5714H100.379V19.8571ZM98.6647 21.5714H100.379V23.2857H98.6647V21.5714ZM98.6647 19.8571H100.379V21.5714H98.6647V19.8571ZM98.6647 18.1429H100.379V19.8571H98.6647V18.1429ZM98.6647 16.4286H100.379V18.1429H98.6647V16.4286ZM98.6647 14.7143H100.379V16.4286H98.6647V14.7143ZM98.6647 13H100.379V14.7143H98.6647V13ZM100.379 14.7143H102.093V16.4286H100.379V14.7143ZM100.379 16.4286H102.093V18.1429H100.379V16.4286ZM100.379 18.1429H102.093V19.8571H100.379V18.1429ZM103.808 21.5714H105.522V23.2857H103.808V21.5714ZM103.808 13H105.522V14.7143H103.808V13ZM112.063 13H113.778V14.7143H112.063V13ZM112.063 11.2857H113.778V13H112.063V11.2857ZM113.778 11.2857H115.492V13H113.778V11.2857ZM113.778 13H115.492V14.7143H113.778V13ZM113.778 14.7143H115.492V16.4286H113.778V14.7143ZM113.778 16.4286H115.492V18.1429H113.778V16.4286ZM113.778 18.1429H115.492V19.8571H113.778V18.1429ZM112.063 18.1429H113.778V19.8571H112.063V18.1429ZM112.063 16.4286H113.778V18.1429H112.063V16.4286ZM112.063 14.7143H113.778V16.4286H112.063V14.7143ZM112.063 19.8571H113.778V21.5714H112.063V19.8571ZM113.778 19.8571H115.492V21.5714H113.778V19.8571ZM113.778 21.5714H115.492V23.2857H113.778V21.5714ZM113.778 23.2857H115.492V25H113.778V23.2857ZM112.063 23.2857H113.778V25H112.063V23.2857ZM112.063 21.5714H113.778V23.2857H112.063V21.5714ZM120.635 23.2857H122.349V25H120.635V23.2857ZM122.349 23.2857H124.063V25H122.349V23.2857ZM122.349 21.5714H124.063V23.2857H122.349V21.5714ZM122.349 19.8571H124.063V21.5714H122.349V19.8571ZM122.349 18.1429H124.063V19.8571H122.349V18.1429ZM122.349 16.4286H124.063V18.1429H122.349V16.4286ZM122.349 14.7143H124.063V16.4286H122.349V14.7143ZM122.349 13H124.063V14.7143H122.349V13ZM120.635 16.4286H122.349V18.1429H120.635V16.4286ZM120.635 18.1429H122.349V19.8571H120.635V18.1429ZM120.635 19.8571H122.349V21.5714H120.635V19.8571ZM120.635 21.5714H122.349V23.2857H120.635V21.5714ZM120.635 14.7143H122.349V16.4286H120.635V14.7143ZM115.492 13H117.206V14.7143H115.492V13ZM117.206 13H118.921V14.7143H117.206V13ZM118.921 13H120.635V14.7143H118.921V13ZM118.921 11.2857H120.635V13H118.921V11.2857ZM120.635 11.2857H122.349V13H120.635V11.2857ZM120.635 13H122.349V14.7143H120.635V13ZM117.206 11.2857H118.921V13H117.206V11.2857ZM112.063 7.85714H113.778V9.57143H112.063V7.85714ZM113.778 7.85714H115.492V9.57143H113.778V7.85714ZM113.778 9.57143H115.492V11.2857H113.778V9.57143ZM112.063 9.57143H113.778V11.2857H112.063V9.57143ZM125.462 11.2857H127.177V13H125.462V11.2857ZM127.177 11.2857H128.891V13H127.177V11.2857ZM127.177 13H128.891V14.7143H127.177V13ZM127.177 14.7143H128.891V16.4286H127.177V14.7143ZM127.177 16.4286H128.891V18.1429H127.177V16.4286ZM125.462 14.7143H127.177V16.4286H125.462V14.7143ZM125.462 13H127.177V14.7143H125.462V13ZM125.462 16.4286H127.177V18.1429H125.462V16.4286ZM125.462 18.1429H127.177V19.8571H125.462V18.1429ZM127.177 18.1429H128.891V19.8571H127.177V18.1429ZM127.177 19.8571H128.891V21.5714H127.177V19.8571ZM128.891 19.8571H130.605V21.5714H128.891V19.8571ZM128.891 21.5714H130.605V23.2857H128.891V21.5714ZM130.605 21.5714H132.319V23.2857H130.605V21.5714ZM132.319 21.5714H134.034V23.2857H132.319V21.5714ZM132.319 19.8571H134.034V21.5714H132.319V19.8571ZM132.319 18.1429H134.034V19.8571H132.319V18.1429ZM134.034 18.1429H135.748V19.8571H134.034V18.1429ZM134.034 19.8571H135.748V21.5714H134.034V19.8571ZM134.034 16.4286H135.748V18.1429H134.034V16.4286ZM132.319 16.4286H134.034V18.1429H132.319V16.4286ZM132.319 11.2857H134.034V13H132.319V11.2857ZM134.034 11.2857H135.748V13H134.034V11.2857ZM134.034 13H135.748V14.7143H134.034V13ZM134.034 14.7143H135.748V16.4286H134.034V14.7143ZM132.319 13H134.034V14.7143H132.319V13ZM132.319 14.7143H134.034V16.4286H132.319V14.7143ZM130.605 23.2857H132.319V25H130.605V23.2857ZM128.891 23.2857H130.605V25H128.891V23.2857ZM128.891 25H130.605V26.7143H128.891V25ZM127.177 25H128.891V26.7143H127.177V25ZM127.177 23.2857H128.891V25H127.177V23.2857ZM127.177 26.7143H128.891V28.4286H127.177V26.7143ZM125.462 26.7143H127.177V28.4286H125.462V26.7143ZM125.462 25H127.177V26.7143H125.462V25ZM130.605 19.8571H132.319V21.5714H130.605V19.8571ZM128.891 18.1429H130.605V19.8571H128.891V18.1429ZM143.666 23.2857H145.38V25H143.666V23.2857ZM145.38 23.2857H147.095V25H145.38V23.2857ZM145.38 21.5714H147.095V23.2857H145.38V21.5714ZM145.38 19.8571H147.095V21.5714H145.38V19.8571ZM145.38 18.1429H147.095V19.8571H145.38V18.1429ZM145.38 16.4286H147.095V18.1429H145.38V16.4286ZM145.38 14.7143H147.095V16.4286H145.38V14.7143ZM143.666 14.7143H145.38V16.4286H143.666V14.7143ZM143.666 16.4286H145.38V18.1429H143.666V16.4286ZM143.666 18.1429H145.38V19.8571H143.666V18.1429ZM143.666 19.8571H145.38V21.5714H143.666V19.8571ZM143.666 21.5714H145.38V23.2857H143.666V21.5714ZM143.666 13H145.38V14.7143H143.666V13ZM145.38 13H147.095V14.7143H145.38V13ZM145.38 11.2857H147.095V13H145.38V11.2857ZM145.38 9.57143H147.095V11.2857H145.38V9.57143ZM145.38 7.85714H147.095V9.57143H145.38V7.85714ZM143.666 7.85714H145.38V9.57143H143.666V7.85714ZM143.666 9.57143H145.38V11.2857H143.666V9.57143ZM143.666 11.2857H145.38V13H143.666V11.2857ZM148.502 13H150.217V14.7143H148.502V13ZM148.502 11.2857H150.217V13H148.502V11.2857ZM150.217 11.2857H151.931V13H150.217V11.2857ZM150.217 13H151.931V14.7143H150.217V13ZM150.217 14.7143H151.931V16.4286H150.217V14.7143ZM150.217 16.4286H151.931V18.1429H150.217V16.4286ZM150.217 18.1429H151.931V19.8571H150.217V18.1429ZM148.502 18.1429H150.217V19.8571H148.502V18.1429ZM148.502 16.4286H150.217V18.1429H148.502V16.4286ZM148.502 14.7143H150.217V16.4286H148.502V14.7143ZM148.502 19.8571H150.217V21.5714H148.502V19.8571ZM150.217 19.8571H151.931V21.5714H150.217V19.8571ZM150.217 21.5714H151.931V23.2857H150.217V21.5714ZM150.217 23.2857H151.931V25H150.217V23.2857ZM148.502 23.2857H150.217V25H148.502V23.2857ZM148.502 21.5714H150.217V23.2857H148.502V21.5714ZM157.074 23.2857H158.788V25H157.074V23.2857ZM158.788 23.2857H160.502V25H158.788V23.2857ZM158.788 21.5714H160.502V23.2857H158.788V21.5714ZM158.788 19.8571H160.502V21.5714H158.788V19.8571ZM158.788 18.1429H160.502V19.8571H158.788V18.1429ZM158.788 16.4286H160.502V18.1429H158.788V16.4286ZM158.788 14.7143H160.502V16.4286H158.788V14.7143ZM158.788 13H160.502V14.7143H158.788V13ZM157.074 16.4286H158.788V18.1429H157.074V16.4286ZM157.074 18.1429H158.788V19.8571H157.074V18.1429ZM157.074 19.8571H158.788V21.5714H157.074V19.8571ZM157.074 21.5714H158.788V23.2857H157.074V21.5714ZM157.074 14.7143H158.788V16.4286H157.074V14.7143ZM151.931 13H153.645V14.7143H151.931V13ZM153.645 13H155.359V14.7143H153.645V13ZM155.359 13H157.074V14.7143H155.359V13ZM155.359 11.2857H157.074V13H155.359V11.2857ZM157.074 11.2857H158.788V13H157.074V11.2857ZM157.074 13H158.788V14.7143H157.074V13ZM153.645 11.2857H155.359V13H153.645V11.2857ZM165.33 11.2857H167.044V13H165.33V11.2857ZM163.615 11.2857H165.33V13H163.615V11.2857ZM163.615 13H165.33V14.7143H163.615V13ZM165.33 13H167.044V14.7143H165.33V13ZM167.044 11.2857H168.758V13H167.044V11.2857ZM168.758 11.2857H170.472V13H168.758V11.2857ZM170.472 11.2857H172.187V13H170.472V11.2857ZM170.472 13H172.187V14.7143H170.472V13ZM168.758 13H170.472V14.7143H168.758V13ZM172.187 13H173.901V14.7143H172.187V13ZM172.187 14.7143H173.901V16.4286H172.187V14.7143ZM172.187 19.8571H173.901V21.5714H172.187V19.8571ZM172.187 21.5714H173.901V23.2857H172.187V21.5714ZM170.472 21.5714H172.187V23.2857H170.472V21.5714ZM170.472 19.8571H172.187V21.5714H170.472V19.8571ZM170.472 14.7143H172.187V16.4286H170.472V14.7143ZM168.758 21.5714H170.472V23.2857H168.758V21.5714ZM170.472 23.2857H172.187V25H170.472V23.2857ZM168.758 23.2857H170.472V25H168.758V23.2857ZM167.044 23.2857H168.758V25H167.044V23.2857ZM165.33 23.2857H167.044V25H165.33V23.2857ZM163.615 23.2857H165.33V25H163.615V23.2857ZM163.615 21.5714H165.33V23.2857H163.615V21.5714ZM165.33 21.5714H167.044V23.2857H165.33V21.5714ZM163.615 19.8571H165.33V21.5714H163.615V19.8571ZM161.901 21.5714H163.615V23.2857H161.901V21.5714ZM161.901 19.8571H163.615V21.5714H161.901V19.8571ZM161.901 18.1429H163.615V19.8571H161.901V18.1429ZM161.901 16.4286H163.615V18.1429H161.901V16.4286ZM161.901 14.7143H163.615V16.4286H161.901V14.7143ZM161.901 13H163.615V14.7143H161.901V13ZM163.615 14.7143H165.33V16.4286H163.615V14.7143ZM163.615 16.4286H165.33V18.1429H163.615V16.4286ZM163.615 18.1429H165.33V19.8571H163.615V18.1429ZM167.044 21.5714H168.758V23.2857H167.044V21.5714ZM167.044 13H168.758V14.7143H167.044V13ZM175.3 21.5714H177.014V23.2857H175.3V21.5714ZM177.014 21.5714H178.728V23.2857H177.014V21.5714ZM177.014 23.2857H178.728V25H177.014V23.2857ZM175.3 23.2857H177.014V25H175.3V23.2857Z" fill="white"/>
</svg>
